<svg width="16" height="16" viewBox="0 0 16 16" fill="none" xmlns="http://www.w3.org/2000/svg">
<path fill-rule="evenodd" clip-rule="evenodd" d="M6.45055 9.61356C7.91385 11.0776 10.2863 11.0776 11.7496 9.61356C11.9094 9.45367 12.0518 9.28292 12.1767 9.1037C11.9924 9.82174 11.6193 10.5013 11.0574 11.0635C9.38504 12.7367 6.67365 12.7367 5.00132 11.0635C3.32899 9.39026 3.32899 6.67745 5.00132 5.00425C5.5633 4.44198 6.24261 4.06865 6.96039 3.88428C6.78117 4.00929 6.61044 4.15178 6.45055 4.31174C4.98726 5.7758 4.98726 8.14951 6.45055 9.61356Z" fill="#00AC48"/>
<path d="M11.3572 4.70407L10.6054 6.18041L11.7764 7.35204L10.1407 7.09284L9.38889 8.56919L9.12983 6.93265L7.49414 6.67344L8.96971 5.92121L8.71065 4.28467L9.88167 5.4563L11.3572 4.70407Z" fill="#00AC48"/>
<path d="M0.510193 5.11297C0.170064 5.11297 0 4.93724 0 4.58577V2.43515C0 1.62622 0.206308 1.01813 0.618923 0.610879C1.03154 0.203626 1.64489 0 2.45896 0H4.60847C4.95975 0 5.13539 0.170153 5.13539 0.51046C5.13539 0.856346 4.95975 1.02929 4.60847 1.02929H2.48406C2.01011 1.02929 1.64767 1.15202 1.39676 1.39749C1.15142 1.64296 1.02875 2.00837 1.02875 2.49372V4.58577C1.02875 4.93724 0.855898 5.11297 0.510193 5.11297ZM15.4814 5.11297C15.1413 5.11297 14.9712 4.93724 14.9712 4.58577V2.49372C14.9712 2.00837 14.843 1.64296 14.5865 1.39749C14.33 1.15202 13.9704 1.02929 13.5076 1.02929H11.3915C11.0403 1.02929 10.8646 0.856346 10.8646 0.51046C10.8646 0.170153 11.0403 0 11.3915 0H13.5327C14.3523 0 14.9685 0.206416 15.3811 0.619247C15.7937 1.0265 16 1.6318 16 2.43515V4.58577C16 4.93724 15.8271 5.11297 15.4814 5.11297ZM2.45896 16C1.64489 16 1.03154 15.7936 0.618923 15.3808C0.206308 14.9735 0 14.3654 0 13.5565V11.4142C0 11.0628 0.170064 10.887 0.510193 10.887C0.855898 10.887 1.02875 11.0628 1.02875 11.4142V13.5063C1.02875 13.9916 1.15142 14.357 1.39676 14.6025C1.64767 14.848 2.01011 14.9707 2.48406 14.9707H4.60847C4.95975 14.9707 5.13539 15.1437 5.13539 15.4895C5.13539 15.8298 4.95975 16 4.60847 16H2.45896ZM11.3915 16C11.0403 16 10.8646 15.8298 10.8646 15.4895C10.8646 15.1437 11.0403 14.9707 11.3915 14.9707H13.5076C13.9704 14.9707 14.33 14.848 14.5865 14.6025C14.843 14.357 14.9712 13.9916 14.9712 13.5063V11.4142C14.9712 11.0628 15.1413 10.887 15.4814 10.887C15.8271 10.887 16 11.0628 16 11.4142V13.5565C16 14.3654 15.7937 14.9735 15.3811 15.3808C14.9685 15.7936 14.3523 16 13.5327 16H11.3915Z" fill="#00AC48"/>
</svg>
