<svg width="32" height="32" viewBox="0 0 32 32" fill="none" xmlns="http://www.w3.org/2000/svg">
<path fill-rule="evenodd" clip-rule="evenodd" d="M12.9009 19.227C15.8275 22.1551 20.5724 22.1551 23.499 19.227C23.8188 18.907 24.1036 18.5654 24.3535 18.2068C23.9849 19.6431 23.2387 21.0023 22.1148 22.1268C18.7701 25.4732 13.3473 25.4732 10.0026 22.1268C6.65797 18.7804 6.65797 13.3548 10.0026 10.0084C11.1265 8.88396 12.4849 8.13735 13.9204 7.76855C13.562 8.01853 13.2206 8.30345 12.9009 8.62332C9.97434 11.5514 9.97434 16.2988 12.9009 19.227Z" fill="#00AC48"/>
<path d="M22.7145 9.40764L21.2108 12.3603L23.5528 14.7036L20.2815 14.1852L18.7778 17.1379L18.2597 13.8648L14.9883 13.3464L17.9394 11.8419L17.4213 8.56885L19.7633 10.9121L22.7145 9.40764Z" fill="#00AC48"/>
<path d="M1.02039 10.2259C0.340129 10.2259 0 9.87448 0 9.17155V4.87029C0 3.25244 0.412615 2.03626 1.23785 1.22176C2.06308 0.407252 3.28977 0 4.91793 0H9.21694C9.9195 0 10.2708 0.340307 10.2708 1.02092C10.2708 1.71269 9.9195 2.05858 9.21694 2.05858H4.96811C4.02021 2.05858 3.29535 2.30404 2.79352 2.79498C2.30284 3.28591 2.0575 4.01674 2.0575 4.98745V9.17155C2.0575 9.87448 1.7118 10.2259 1.02039 10.2259ZM30.9629 10.2259C30.2826 10.2259 29.9425 9.87448 29.9425 9.17155V4.98745C29.9425 4.01674 29.686 3.28591 29.173 2.79498C28.66 2.30404 27.9408 2.05858 27.0152 2.05858H22.7831C22.0805 2.05858 21.7292 1.71269 21.7292 1.02092C21.7292 0.340307 22.0805 0 22.7831 0H27.0653C28.7047 0 29.9369 0.412831 30.7622 1.23849C31.5874 2.053 32 3.2636 32 4.87029V9.17155C32 9.87448 31.6543 10.2259 30.9629 10.2259ZM4.91793 32C3.28977 32 2.06308 31.5872 1.23785 30.7615C0.412615 29.947 0 28.7308 0 27.113V22.8285C0 22.1255 0.340129 21.7741 1.02039 21.7741C1.7118 21.7741 2.0575 22.1255 2.0575 22.8285V27.0126C2.0575 27.9833 2.30284 28.7141 2.79352 29.205C3.29535 29.696 4.02021 29.9414 4.96811 29.9414H9.21694C9.9195 29.9414 10.2708 30.2873 10.2708 30.9791C10.2708 31.6597 9.9195 32 9.21694 32H4.91793ZM22.7831 32C22.0805 32 21.7292 31.6597 21.7292 30.9791C21.7292 30.2873 22.0805 29.9414 22.7831 29.9414H27.0152C27.9408 29.9414 28.66 29.696 29.173 29.205C29.686 28.7141 29.9425 27.9833 29.9425 27.0126V22.8285C29.9425 22.1255 30.2826 21.7741 30.9629 21.7741C31.6543 21.7741 32 22.1255 32 22.8285V27.113C32 28.7308 31.5874 29.947 30.7622 30.7615C29.9369 31.5872 28.7047 32 27.0653 32H22.7831Z" fill="#00AC48"/>
</svg>
