<svg width="24" height="24" viewBox="0 0 24 24" fill="none" xmlns="http://www.w3.org/2000/svg">
<path fill-rule="evenodd" clip-rule="evenodd" d="M9.67583 14.4201C11.8708 16.6162 15.4295 16.6162 17.6244 14.4201C17.8641 14.1803 18.0777 13.9241 18.265 13.6553C17.9886 14.7324 17.4289 15.7517 16.5861 16.595C14.0776 19.1048 10.0105 19.1048 7.50198 16.595C4.99348 14.0851 4.99348 10.0159 7.50198 7.50613C8.34494 6.66272 9.36391 6.10274 10.4406 5.82617C10.1718 6.01369 9.91565 6.22742 9.67583 6.46737C7.48089 8.66346 7.48089 12.224 9.67583 14.4201Z" fill="#00AC48"/>
<path d="M17.0359 7.05586L15.9081 9.27037L17.6646 11.0278L15.2111 10.639L14.0833 12.8535L13.6947 10.3987L11.2412 10.0099L13.4546 8.88157L13.066 6.42676L14.8225 8.18421L17.0359 7.05586Z" fill="#00AC48"/>
<path d="M0.76529 7.66946C0.255097 7.66946 0 7.40586 0 6.87866V3.65272C0 2.43933 0.309462 1.5272 0.928385 0.916318C1.54731 0.305439 2.46733 0 3.68845 0H6.9127C7.43962 0 7.70308 0.25523 7.70308 0.76569C7.70308 1.28452 7.43962 1.54393 6.9127 1.54393H3.72608C3.01516 1.54393 2.47151 1.72803 2.09514 2.09623C1.72713 2.46444 1.54313 3.01255 1.54313 3.74059V6.87866C1.54313 7.40586 1.28385 7.66946 0.76529 7.66946ZM23.2222 7.66946C22.712 7.66946 22.4569 7.40586 22.4569 6.87866V3.74059C22.4569 3.01255 22.2645 2.46444 21.8798 2.09623C21.495 1.72803 20.9556 1.54393 20.2614 1.54393H17.0873C16.5604 1.54393 16.2969 1.28452 16.2969 0.76569C16.2969 0.25523 16.5604 0 17.0873 0H20.299C21.5285 0 22.4527 0.309623 23.0716 0.92887C23.6905 1.53975 24 2.4477 24 3.65272V6.87866C24 7.40586 23.7407 7.66946 23.2222 7.66946ZM3.68845 24C2.46733 24 1.54731 23.6904 0.928385 23.0711C0.309462 22.4603 0 21.5481 0 20.3347V17.1213C0 16.5941 0.255097 16.3305 0.76529 16.3305C1.28385 16.3305 1.54313 16.5941 1.54313 17.1213V20.2594C1.54313 20.9874 1.72713 21.5356 2.09514 21.9038C2.47151 22.272 3.01516 22.4561 3.72608 22.4561H6.9127C7.43962 22.4561 7.70308 22.7155 7.70308 23.2343C7.70308 23.7448 7.43962 24 6.9127 24H3.68845ZM17.0873 24C16.5604 24 16.2969 23.7448 16.2969 23.2343C16.2969 22.7155 16.5604 22.4561 17.0873 22.4561H20.2614C20.9556 22.4561 21.495 22.272 21.8798 21.9038C22.2645 21.5356 22.4569 20.9874 22.4569 20.2594V17.1213C22.4569 16.5941 22.712 16.3305 23.2222 16.3305C23.7407 16.3305 24 16.5941 24 17.1213V20.3347C24 21.5481 23.6905 22.4603 23.0716 23.0711C22.4527 23.6904 21.5285 24 20.299 24H17.0873Z" fill="#00AC48"/>
</svg>
